<?xml version="1.0" encoding="UTF-8" standalone="no"?>
<!DOCTYPE svg PUBLIC "-//W3C//DTD SVG 1.1//EN" "http://www.w3.org/Graphics/SVG/1.1/DTD/svg11.dtd">
<svg class="railroad-diagram" width="877.5" height="62" viewBox="0 0 877.5 62" xmlns="http://www.w3.org/2000/svg" xmlns:xlink="http://www.w3.org/1999/xlink"><g transform="translate(.5 .5)"><g><path d="M20 21v20m0 -10h20"></path></g><g><path d="M40 31h0"></path><path d="M837.5 31h0"></path><path d="M40 31h20"></path><g><path d="M60 31h0"></path><g><path d="M60 31h10"></path><path d="M807.5 31h10"></path><g class="terminal "><path d="M70 31h0"></path><path d="M149.5 31h0"></path><rect x="70" y="20" width="79.5" height="22"></rect><text x="109.75" y="35">PATTERN</text></g><path d="M149.5 31h10"></path><g><path d="M159.5 31h0"></path><path d="M324.5 31h0"></path><path d="M159.5 31h20"></path><g><path d="M179.5 31h0"></path><g><path d="M179.5 31h10"></path><path d="M294.5 31h10"></path><g class="terminal "><path d="M189.5 31h0"></path><path d="M294.5 31h0"></path><rect x="189.5" y="20" width="105" height="22"></rect><text x="242" y="35">IDENTIFIER</text></g></g><path d="M304.5 31h0"></path></g><path d="M304.5 31h20"></path></g><path d="M324.5 31h10"></path><g class="comment "><path d="M334.5 31h0"></path><path d="M449.5 31h0"></path><text x="392" y="36" class="comment">{ action code }</text></g><path d="M449.5 31h10"></path><path d="M459.5 31h10"></path><g class="non-terminal "><path d="M469.5 31h0"></path><path d="M557.5 31h0"></path><rect x="469.5" y="20" width="88" height="22" rx="10" ry="10"></rect><text x="513.5" y="35">funcArgs</text></g><path d="M557.5 31h10"></path><path d="M567.5 31h10"></path><g class="non-terminal "><path d="M577.5 31h0"></path><path d="M691 31h0"></path><rect x="577.5" y="20" width="113.5" height="22" rx="10" ry="10"></rect><text x="634.25" y="35">patternBody</text></g><path d="M691 31h10"></path><path d="M701 31h10"></path><g class="terminal "><path d="M711 31h0"></path><path d="M807.5 31h0"></path><rect x="711" y="20" width="96.5" height="22"></rect><text x="759.25" y="35">SEMICOLON</text></g></g><path d="M817.5 31h0"></path></g><path d="M817.5 31h20"></path></g><path d="M 837.5 31 h 20 m 0 -10 v 20"></path></g><defs><style type="text/css"><![CDATA[
svg.railroad-diagram path { stroke-width: 2; stroke: darkgray; fill: rgba(0, 0, 0, 0);}/* All text except comments. */svg.railroad-diagram text { font: bold 12px Hack, "Source Code Pro", monospace; text-anchor: middle; fill: #404040;}/* Comment text */svg.railroad-diagram text.comment { font: italic 10px Hack, "Source Code Pro", monospace; fill: #404040;}/* The terminal boxes. */svg.railroad-diagram g.terminal rect { stroke-width: 2; stroke: #404040; fill: rgba(200, 200, 200, 1);}svg.railroad-diagram g.non-terminal rect { /* The non-terminal boxes. */ stroke-width: 2; stroke: #404040; fill: rgba(255, 255, 255, 1);}/* Multiple choice text, not working atm. */svg.railroad-diagram text.diagram-text { font-size: 12px Hack, "Source Code Pro", monospace; fill: red;}/* Multiple choice text, not working atm. */svg.railroad-diagram path.diagram-text { stroke-width: 1; stroke: red; fill: red; cursor: help;}
 ]]>
</style></defs></svg>