<?xml version="1.0" encoding="UTF-8" standalone="no"?>
<!DOCTYPE svg PUBLIC "-//W3C//DTD SVG 1.1//EN" "http://www.w3.org/Graphics/SVG/1.1/DTD/svg11.dtd">
<svg class="railroad-diagram" width="767" height="62" viewBox="0 0 767 62" xmlns="http://www.w3.org/2000/svg" xmlns:xlink="http://www.w3.org/1999/xlink"><g transform="translate(.5 .5)"><g><path d="M20 21v20m0 -10h20"></path></g><g><path d="M40 31h0"></path><path d="M727 31h0"></path><path d="M40 31h20"></path><g><path d="M60 31h0"></path><g><path d="M60 31h10"></path><path d="M697 31h10"></path><g class="terminal "><path d="M70 31h0"></path><path d="M115.5 31h0"></path><rect x="70" y="20" width="45.5" height="22"></rect><text x="92.75" y="35">DEF</text></g><path d="M115.5 31h10"></path><g><path d="M125.5 31h0"></path><path d="M290.5 31h0"></path><path d="M125.5 31h20"></path><g><path d="M145.5 31h0"></path><g><path d="M145.5 31h10"></path><path d="M260.5 31h10"></path><g class="terminal "><path d="M155.5 31h0"></path><path d="M260.5 31h0"></path><rect x="155.5" y="20" width="105" height="22"></rect><text x="208" y="35">IDENTIFIER</text></g></g><path d="M270.5 31h0"></path></g><path d="M270.5 31h20"></path></g><path d="M290.5 31h10"></path><g class="comment "><path d="M300.5 31h0"></path><path d="M415.5 31h0"></path><text x="358" y="36" class="comment">{ action code }</text></g><path d="M415.5 31h10"></path><path d="M425.5 31h10"></path><g class="non-terminal "><path d="M435.5 31h0"></path><path d="M523.5 31h0"></path><rect x="435.5" y="20" width="88" height="22" rx="10" ry="10"></rect><text x="479.5" y="35">funcArgs</text></g><path d="M523.5 31h10"></path><path d="M533.5 31h10"></path><g class="non-terminal "><path d="M543.5 31h0"></path><path d="M631.5 31h0"></path><rect x="543.5" y="20" width="88" height="22" rx="10" ry="10"></rect><text x="587.5" y="35">funcBody</text></g><path d="M631.5 31h10"></path><path d="M641.5 31h10"></path><g class="terminal "><path d="M651.5 31h0"></path><path d="M697 31h0"></path><rect x="651.5" y="20" width="45.5" height="22"></rect><text x="674.25" y="35">END</text></g></g><path d="M707 31h0"></path></g><path d="M707 31h20"></path></g><path d="M 727 31 h 20 m 0 -10 v 20"></path></g><defs><style type="text/css"><![CDATA[
svg.railroad-diagram path { stroke-width: 2; stroke: darkgray; fill: rgba(0, 0, 0, 0);}/* All text except comments. */svg.railroad-diagram text { font: bold 12px Hack, "Source Code Pro", monospace; text-anchor: middle; fill: #404040;}/* Comment text */svg.railroad-diagram text.comment { font: italic 10px Hack, "Source Code Pro", monospace; fill: #404040;}/* The terminal boxes. */svg.railroad-diagram g.terminal rect { stroke-width: 2; stroke: #404040; fill: rgba(200, 200, 200, 1);}svg.railroad-diagram g.non-terminal rect { /* The non-terminal boxes. */ stroke-width: 2; stroke: #404040; fill: rgba(255, 255, 255, 1);}/* Multiple choice text, not working atm. */svg.railroad-diagram text.diagram-text { font-size: 12px Hack, "Source Code Pro", monospace; fill: red;}/* Multiple choice text, not working atm. */svg.railroad-diagram path.diagram-text { stroke-width: 1; stroke: red; fill: red; cursor: help;}
 ]]>
</style></defs></svg>