<?xml version="1.0" encoding="UTF-8" standalone="no"?>
<!DOCTYPE svg PUBLIC "-//W3C//DTD SVG 1.1//EN" "http://www.w3.org/Graphics/SVG/1.1/DTD/svg11.dtd">
<svg class="railroad-diagram" width="663" height="62" viewBox="0 0 663 62" xmlns="http://www.w3.org/2000/svg" xmlns:xlink="http://www.w3.org/1999/xlink"><g transform="translate(.5 .5)"><g><path d="M20 21v20m0 -10h20"></path></g><g><path d="M40 31h0"></path><path d="M623 31h0"></path><path d="M40 31h20"></path><g><path d="M60 31h0"></path><g><path d="M60 31h10"></path><path d="M593 31h10"></path><g><path d="M70 31h0"></path><path d="M235 31h0"></path><path d="M70 31h20"></path><g><path d="M90 31h0"></path><g><path d="M90 31h10"></path><path d="M205 31h10"></path><g class="terminal "><path d="M100 31h0"></path><path d="M205 31h0"></path><rect x="100" y="20" width="105" height="22"></rect><text x="152.5" y="35">IDENTIFIER</text></g></g><path d="M215 31h0"></path></g><path d="M215 31h20"></path></g><path d="M235 31h10"></path><g class="non-terminal "><path d="M245 31h0"></path><path d="M333 31h0"></path><rect x="245" y="20" width="88" height="22" rx="10" ry="10"></rect><text x="289" y="35">assigner</text></g><path d="M333 31h10"></path><path d="M343 31h10"></path><g class="non-terminal "><path d="M353 31h0"></path><path d="M458 31h0"></path><rect x="353" y="20" width="105" height="22" rx="10" ry="10"></rect><text x="405.5" y="35">expression</text></g><path d="M458 31h10"></path><path d="M468 31h10"></path><g class="comment "><path d="M478 31h0"></path><path d="M593 31h0"></path><text x="535.5" y="36" class="comment">{ action code }</text></g></g><path d="M603 31h0"></path></g><path d="M603 31h20"></path></g><path d="M 623 31 h 20 m 0 -10 v 20"></path></g><defs><style type="text/css"><![CDATA[
svg.railroad-diagram path { stroke-width: 2; stroke: darkgray; fill: rgba(0, 0, 0, 0);}/* All text except comments. */svg.railroad-diagram text { font: bold 12px Hack, "Source Code Pro", monospace; text-anchor: middle; fill: #404040;}/* Comment text */svg.railroad-diagram text.comment { font: italic 10px Hack, "Source Code Pro", monospace; fill: #404040;}/* The terminal boxes. */svg.railroad-diagram g.terminal rect { stroke-width: 2; stroke: #404040; fill: rgba(200, 200, 200, 1);}svg.railroad-diagram g.non-terminal rect { /* The non-terminal boxes. */ stroke-width: 2; stroke: #404040; fill: rgba(255, 255, 255, 1);}/* Multiple choice text, not working atm. */svg.railroad-diagram text.diagram-text { font-size: 12px Hack, "Source Code Pro", monospace; fill: red;}/* Multiple choice text, not working atm. */svg.railroad-diagram path.diagram-text { stroke-width: 1; stroke: red; fill: red; cursor: help;}
 ]]>
</style></defs></svg>