<?xml version="1.0" encoding="UTF-8" standalone="no"?>
<!DOCTYPE svg PUBLIC "-//W3C//DTD SVG 1.1//EN" "http://www.w3.org/Graphics/SVG/1.1/DTD/svg11.dtd">
<svg class="railroad-diagram" width="1206.5" height="148" viewBox="0 0 1206.5 148" xmlns="http://www.w3.org/2000/svg" xmlns:xlink="http://www.w3.org/1999/xlink"><g transform="translate(.5 .5)"><g><path d="M20 53v20m0 -10h20"></path></g><g><path d="M40 63h0"></path><path d="M1166.5 63h0"></path><path d="M40 63h20"></path><g><path d="M60 63h0"></path><g><path d="M60 63h10"></path><path d="M1136.5 63h10"></path><g class="terminal "><path d="M70 63h0"></path><path d="M124 63h0"></path><rect x="70" y="52" width="54" height="22"></rect><text x="97" y="67">LPAR</text></g><path d="M124 63h10"></path><g><path d="M134 63h0"></path><path d="M1072.5 63h0"></path><path d="M134 63a10 10 0 0 0 10 -10v-23a10 10 0 0 1 10 -10"></path><g><path d="M154 20h898.5"></path></g><path d="M1052.5 20a10 10 0 0 1 10 10v23a10 10 0 0 0 10 10"></path><path d="M134 63h20"></path><g><path d="M154 63h0"></path><path d="M1052.5 63h0"></path><path d="M154 63h20"></path><g><path d="M174 63h0"></path><g><path d="M174 63h10"></path><path d="M1022.5 63h10"></path><g><path d="M184 63h0"></path><path d="M1022.5 63h0"></path><path d="M184 63h20"></path><g><path d="M204 63h0"></path><g><path d="M204 63h10"></path><path d="M992.5 63h10"></path><g><path d="M214 63h0"></path><path d="M696.5 63h0"></path><path d="M214 63h20"></path><g><path d="M234 63h0"></path><g><path d="M234 63h10"></path><path d="M666.5 63h10"></path><g><path d="M244 63h0"></path><path d="M551.5 63h0"></path><path d="M244 63a10 10 0 0 0 10 -10v-7a10 10 0 0 1 10 -10"></path><g><path d="M264 36h267.5"></path></g><path d="M531.5 36a10 10 0 0 1 10 10v7a10 10 0 0 0 10 10"></path><path d="M244 63h20"></path><g><path d="M264 63h0"></path><path d="M531.5 63h0"></path><path d="M264 63h10"></path><g><path d="M274 63h0"></path><path d="M521.5 63h0"></path><path d="M274 63h20"></path><g><path d="M294 63h0"></path><g><path d="M294 63h10"></path><path d="M491.5 63h10"></path><g class="terminal "><path d="M304 63h0"></path><path d="M409 63h0"></path><rect x="304" y="52" width="105" height="22"></rect><text x="356.5" y="67">IDENTIFIER</text></g><path d="M409 63h10"></path><path d="M419 63h10"></path><g class="terminal "><path d="M429 63h0"></path><path d="M491.5 63h0"></path><rect x="429" y="52" width="62.5" height="22"></rect><text x="460.25" y="67">COMMA</text></g></g><path d="M501.5 63h0"></path></g><path d="M501.5 63h20"></path></g><path d="M521.5 63h10"></path><path d="M274 63a10 10 0 0 0 -10 10v7a10 10 0 0 0 10 10"></path><g><path d="M274 90h247.5"></path></g><path d="M521.5 90a10 10 0 0 0 10 -10v-7a10 10 0 0 0 -10 -10"></path></g><path d="M531.5 63h20"></path></g><path d="M551.5 63h10"></path><g class="terminal "><path d="M561.5 63h0"></path><path d="M666.5 63h0"></path><rect x="561.5" y="52" width="105" height="22"></rect><text x="614" y="67">IDENTIFIER</text></g></g><path d="M676.5 63h0"></path></g><path d="M676.5 63h20"></path></g><g><path d="M696.5 63h0"></path><path d="M992.5 63h0"></path><path d="M696.5 63a10 10 0 0 0 10 -10v-7a10 10 0 0 1 10 -10"></path><g><path d="M716.5 36h256"></path></g><path d="M972.5 36a10 10 0 0 1 10 10v7a10 10 0 0 0 10 10"></path><path d="M696.5 63h20"></path><g><path d="M716.5 63h0"></path><path d="M972.5 63h0"></path><path d="M716.5 63h20"></path><g><path d="M736.5 63h0"></path><g><path d="M736.5 63h10"></path><path d="M942.5 63h10"></path><g class="terminal "><path d="M746.5 63h0"></path><path d="M809 63h0"></path><rect x="746.5" y="52" width="62.5" height="22"></rect><text x="777.75" y="67">COMMA</text></g><path d="M809 63h10"></path><path d="M819 63h10"></path><g class="non-terminal "><path d="M829 63h0"></path><path d="M942.5 63h0"></path><rect x="829" y="52" width="113.5" height="22" rx="10" ry="10"></rect><text x="885.75" y="67">defaultArgs</text></g></g><path d="M952.5 63h0"></path></g><path d="M952.5 63h20"></path></g><path d="M972.5 63h20"></path></g></g><path d="M1002.5 63h0"></path></g><path d="M1002.5 63h20"></path></g></g><path d="M1032.5 63h0"></path></g><path d="M1032.5 63h20"></path><path d="M154 63a10 10 0 0 1 10 10v34a10 10 0 0 0 10 10"></path><g><path d="M174 117h362.5"></path><g><path d="M536.5 117h10"></path><path d="M660 117h10"></path><g class="non-terminal "><path d="M546.5 117h0"></path><path d="M660 117h0"></path><rect x="546.5" y="106" width="113.5" height="22" rx="10" ry="10"></rect><text x="603.25" y="121">defaultArgs</text></g></g><path d="M670 117h362.5"></path></g><path d="M1032.5 117a10 10 0 0 0 10 -10v-34a10 10 0 0 1 10 -10"></path></g><path d="M1052.5 63h20"></path></g><path d="M1072.5 63h10"></path><g class="terminal "><path d="M1082.5 63h0"></path><path d="M1136.5 63h0"></path><rect x="1082.5" y="52" width="54" height="22"></rect><text x="1109.5" y="67">RPAR</text></g></g><path d="M1146.5 63h0"></path></g><path d="M1146.5 63h20"></path></g><path d="M 1166.5 63 h 20 m 0 -10 v 20"></path></g><defs><style type="text/css"><![CDATA[
svg.railroad-diagram path { stroke-width: 2; stroke: darkgray; fill: rgba(0, 0, 0, 0);}/* All text except comments. */svg.railroad-diagram text { font: bold 12px Hack, "Source Code Pro", monospace; text-anchor: middle; fill: #404040;}/* Comment text */svg.railroad-diagram text.comment { font: italic 10px Hack, "Source Code Pro", monospace; fill: #404040;}/* The terminal boxes. */svg.railroad-diagram g.terminal rect { stroke-width: 2; stroke: #404040; fill: rgba(200, 200, 200, 1);}svg.railroad-diagram g.non-terminal rect { /* The non-terminal boxes. */ stroke-width: 2; stroke: #404040; fill: rgba(255, 255, 255, 1);}/* Multiple choice text, not working atm. */svg.railroad-diagram text.diagram-text { font-size: 12px Hack, "Source Code Pro", monospace; fill: red;}/* Multiple choice text, not working atm. */svg.railroad-diagram path.diagram-text { stroke-width: 1; stroke: red; fill: red; cursor: help;}
 ]]>
</style></defs></svg>